<?xml version="1.0" encoding="utf-8"?>
<!-- Generator: Adobe Illustrator 23.0.3, SVG Export Plug-In . SVG Version: 6.00 Build 0)  -->
<svg version="1.1" id="Isolation_Mode" xmlns="http://www.w3.org/2000/svg" xmlns:xlink="http://www.w3.org/1999/xlink" x="0px"
	 y="0px" viewBox="0 0 251.1 102.1" style="enable-background:new 0 0 251.1 102.1;" xml:space="preserve">
<style type="text/css">
	.st0{fill:url(#SVGID_1_);}
	.st1{fill:url(#SVGID_2_);}
	.st2{fill:url(#SVGID_3_);}
	.st3{fill:url(#SVGID_4_);}
	.st4{fill:url(#SVGID_5_);}
	.st5{fill:#FFFFFF;}
	.st6{fill:url(#SVGID_6_);}
	.st7{fill:url(#SVGID_7_);}
	.st8{fill:url(#SVGID_8_);}
	.st9{fill:url(#SVGID_9_);}
	.st10{fill:url(#SVGID_10_);}
</style>
<g>
	<g>
		<g>
			<g>
				<linearGradient id="SVGID_1_" gradientUnits="userSpaceOnUse" x1="15.5131" y1="24.9433" x2="34.9575" y2="44.3878">
					<stop  offset="0" style="stop-color:#FF0000"/>
					<stop  offset="1" style="stop-color:#0000FF"/>
				</linearGradient>
				<path class="st0" d="M20,51.1c-1.3,0-2.6-0.1-3.9-0.4c-0.6-0.1-1.2-0.3-1.7-0.4v-10c0.6,0.3,1.1,0.6,1.6,0.8
					c1.3,0.5,2.6,0.8,4,0.8c5.9,0,10.8-4.8,10.8-10.8c0-2.8-1.1-5.4-3-7.5v-2.2c3,2.4,4.7,5.9,4.7,9.7c0,6.8-5.6,12.4-12.4,12.4
					c-1.3,0-2.6-0.2-3.9-0.6l-0.2-0.1v0.9l0.1,0c1.3,0.4,2.6,0.6,4,0.6c3.6,0,6.9-1.4,9.4-3.9c2.5-2.5,3.9-5.8,3.9-9.4
					c0-3.5-1.4-6.9-3.9-9.4c-0.5-0.5-1.1-1-1.6-1.4v-2c4.4,2.7,7.2,7.5,7.2,12.8c0,8.2-6.7,14.9-14.9,14.9c-1.3,0-2.6-0.2-3.9-0.5
					l-0.2-0.1v0.9l0.1,0c1.3,0.3,2.6,0.5,4,0.5c4.2,0,8.2-1.6,11.2-4.6c3-3,4.6-7,4.6-11.2c0-4.2-1.6-8.2-4.6-11.2
					c-1-1-2.2-1.9-3.4-2.6v-1.9c5.9,2.9,9.7,9,9.7,15.6c0,9.6-7.8,17.5-17.4,17.5c-1.3,0-2.6-0.1-3.9-0.4l-0.2-0.1V49l0.1,0
					c1.3,0.3,2.6,0.4,4,0.4c2.5,0,4.9-0.5,7.1-1.4c2.2-0.9,4.1-2.2,5.8-3.9c1.7-1.7,3-3.6,3.9-5.8c1-2.3,1.4-4.7,1.4-7.1
					c0-2.5-0.5-4.9-1.4-7.1c-0.9-2.2-2.2-4.1-3.9-5.8c-1.5-1.5-3.3-2.7-5.2-3.6v-1.8c7.4,3.1,12.2,10.3,12.2,18.4
					C39.9,42.2,31,51.1,20,51.1z"/>
			</g>
			<g>
				<linearGradient id="SVGID_2_" gradientUnits="userSpaceOnUse" x1="-9.4382" y1="9.4407" x2="21.8497" y2="40.7286">
					<stop  offset="0" style="stop-color:#FF0000"/>
					<stop  offset="1" style="stop-color:#0000FF"/>
				</linearGradient>
				<path class="st1" d="M12.8,49.8C5.1,46.8,0,39.4,0,31.1c0-0.1,0-0.1,0-0.2c0-0.1,0-0.3,0-0.4V0h1.6v31l0,0.1l0,0
					c0,2.5,0.5,4.9,1.4,7.1C4,40.5,5.3,42.4,7,44.1c1.7,1.7,3.6,3,5.8,3.9V49.8z"/>
			</g>
			<g>
				<linearGradient id="SVGID_3_" gradientUnits="userSpaceOnUse" x1="-6.663" y1="9.1857" x2="21.9995" y2="37.8481">
					<stop  offset="0" style="stop-color:#FF0000"/>
					<stop  offset="1" style="stop-color:#0000FF"/>
				</linearGradient>
				<path class="st2" d="M12.8,47.1C6.5,44.2,2.5,38,2.5,31.1V0h1.6c0,7.6,0,31.2,0,31.3c0,4.2,1.7,8.1,4.6,11.1
					c1.2,1.2,2.5,2.2,4,2.9V47.1z"/>
			</g>
			<g>
				<linearGradient id="SVGID_4_" gradientUnits="userSpaceOnUse" x1="-3.8857" y1="8.928" x2="22.1096" y2="34.9233">
					<stop  offset="0" style="stop-color:#FF0000"/>
					<stop  offset="1" style="stop-color:#0000FF"/>
				</linearGradient>
				<path class="st3" d="M12.8,44.2C8,41.6,5,36.6,5,31.1C5,30.9,5,2.6,5,0h1.6c0,2.8,0,31.4,0,31.5c0.1,3.4,1.5,6.6,3.9,9
					c0.7,0.7,1.4,1.3,2.2,1.8V44.2z"/>
			</g>
			<g>
				<linearGradient id="SVGID_5_" gradientUnits="userSpaceOnUse" x1="9.553105e-02" y1="7.4674" x2="23.3456" y2="30.7175">
					<stop  offset="0" style="stop-color:#FF0000"/>
					<stop  offset="1" style="stop-color:#0000FF"/>
				</linearGradient>
				<path class="st4" d="M12.8,41.3c-3.3-2.3-5.2-6.1-5.2-10.1c0-0.2,0-0.4,0-0.6c0.1-2.2,0.8-4.3,2-6.2c2.3-3.5,6.2-5.7,10.4-5.7
					c1.5,0,3.1,0.3,4.4,0.8l0.3,0.1v-0.9l-0.1,0c-1.4-0.5-3-0.8-4.6-0.8c-3.5,0-6.9,1.4-9.4,3.9c-0.5,0.5-0.9,1-1.3,1.6
					c-0.7,0.9-1.3,2-1.7,3.1v-3.6c0.6-0.8,1.2-1.6,2-2.4c2.8-2.7,6.5-4.3,10.4-4.3c1.5,0,3,0.2,4.4,0.7l0.2,0.1V16l-0.1,0
					c-1.4-0.4-3-0.7-4.6-0.7c-4,0-7.8,1.5-10.7,4.2c-0.2,0.2-0.3,0.3-0.5,0.5c-0.4,0.4-0.8,0.9-1.2,1.4v-2.5
					c0.6-0.6,1.3-1.2,1.9-1.7c3-2.3,6.7-3.5,10.5-3.5c1.5,0,3,0.2,4.4,0.6l0.2,0.1v-0.9l-0.1,0c-1.5-0.4-3-0.6-4.5-0.6
					c-2.5,0-4.9,0.5-7.1,1.4c-1.3,0.5-2.5,1.2-3.6,2c-0.6,0.4-1.2,0.9-1.7,1.4V0h1.6v14.3l0.3-0.2c3.1-1.9,6.8-3,10.5-3
					c1.5,0,3,0.2,4.5,0.5c0.6,0.1,1.1,0.3,1.7,0.5v10.2c-0.5-0.3-1-0.6-1.6-0.9c-1.4-0.7-3-1-4.6-1c-5.9,0-10.8,4.8-10.8,10.8
					c0,3,1.3,6,3.6,8V41.3z"/>
			</g>
		</g>
	</g>
</g>
<g>
	<path class="st5" d="M44.4,16.6h11.1v33.6H44.4V16.6z"/>
	<path class="st5" d="M82,32.6h9.6v14.1c-1.9,1.3-4.2,2.3-7,3.2c-2.8,0.8-5.4,1.2-7.8,1.2c-3.5,0-6.6-0.8-9.4-2.3
		c-2.8-1.5-4.9-3.6-6.5-6.3s-2.4-5.7-2.4-9c0-3.3,0.8-6.3,2.4-9c1.6-2.7,3.9-4.8,6.8-6.3c2.9-1.5,6.1-2.3,9.7-2.3
		c2.6,0,5.3,0.5,7.9,1.4c2.6,1,4.9,2.2,6.6,3.8l-6.3,7.6c-1.1-1.1-2.4-2-4-2.7c-1.5-0.7-3-1-4.3-1c-1.4,0-2.7,0.4-3.8,1.1
		c-1.2,0.7-2,1.7-2.7,3c-0.6,1.2-1,2.7-1,4.2c0,1.6,0.3,3,1,4.3c0.7,1.3,1.6,2.3,2.7,3c1.2,0.7,2.4,1.1,3.9,1.1
		c1.2,0,2.7-0.4,4.4-1.2V32.6z"/>
</g>
<g>
	<path class="st5" d="M163.1,50.3l-1.7-4.8h-12.6l-1.7,4.8h-11.4l14.2-33.6h11.4L175,50.3H163.1z M151.7,37.5h7l-3.5-9.8L151.7,37.5
		z"/>
	<path class="st5" d="M199.5,16.6h10.1v33.6h-9.3L187,33.1v17.2h-10.1V16.6h9.3l13.3,17.3V16.6z"/>
	<path class="st5" d="M236.1,32.6h9.6v14.1c-1.9,1.3-4.2,2.3-7,3.2s-5.4,1.2-7.8,1.2c-3.5,0-6.6-0.8-9.4-2.3
		c-2.8-1.5-4.9-3.6-6.5-6.3c-1.6-2.7-2.4-5.7-2.4-9c0-3.3,0.8-6.3,2.4-9c1.6-2.7,3.9-4.8,6.8-6.3c2.9-1.5,6.1-2.3,9.7-2.3
		c2.6,0,5.3,0.5,7.9,1.4c2.6,1,4.9,2.2,6.6,3.8l-6.3,7.6c-1.1-1.1-2.4-2-4-2.7c-1.5-0.7-3-1-4.3-1c-1.4,0-2.7,0.4-3.8,1.1
		c-1.2,0.7-2,1.7-2.7,3c-0.6,1.2-1,2.7-1,4.2c0,1.6,0.3,3,1,4.3s1.6,2.3,2.7,3c1.2,0.7,2.4,1.1,3.9,1.1c1.2,0,2.7-0.4,4.4-1.2V32.6z
		"/>
</g>
<g>
	<g>
		<g>
			<g>
				<linearGradient id="SVGID_6_" gradientUnits="userSpaceOnUse" x1="111.6367" y1="24.9433" x2="131.0811" y2="44.3878">
					<stop  offset="0" style="stop-color:#FF0000"/>
					<stop  offset="1" style="stop-color:#0000FF"/>
				</linearGradient>
				<path class="st6" d="M116.1,51.1c-1.3,0-2.6-0.1-3.9-0.4c-0.6-0.1-1.2-0.3-1.7-0.4v-10c0.6,0.3,1.1,0.6,1.6,0.8
					c1.3,0.5,2.6,0.8,4,0.8c5.9,0,10.8-4.8,10.8-10.8c0-2.8-1.1-5.4-3-7.5v-2.2c3,2.4,4.7,5.9,4.7,9.7c0,6.8-5.6,12.4-12.4,12.4
					c-1.3,0-2.6-0.2-3.9-0.6l-0.2-0.1v0.9l0.1,0c1.3,0.4,2.6,0.6,4,0.6c3.6,0,6.9-1.4,9.4-3.9c2.5-2.5,3.9-5.8,3.9-9.4
					c0-3.5-1.4-6.9-3.9-9.4c-0.5-0.5-1.1-1-1.6-1.4v-2c4.4,2.7,7.2,7.5,7.2,12.8c0,8.2-6.7,14.9-14.9,14.9c-1.3,0-2.6-0.2-3.9-0.5
					l-0.2-0.1v0.9l0.1,0c1.3,0.3,2.6,0.5,4,0.5c4.2,0,8.2-1.6,11.2-4.6c3-3,4.6-7,4.6-11.2c0-4.2-1.6-8.2-4.6-11.2
					c-1-1-2.2-1.9-3.4-2.6v-1.9c5.9,2.9,9.7,9,9.7,15.6c0,9.6-7.8,17.5-17.4,17.5c-1.3,0-2.6-0.1-3.9-0.4l-0.2-0.1V49l0.1,0
					c1.3,0.3,2.6,0.4,4,0.4c2.5,0,4.9-0.5,7.1-1.4c2.2-0.9,4.1-2.2,5.8-3.9c1.7-1.7,3-3.6,3.9-5.8c1-2.3,1.4-4.7,1.4-7.1
					c0-2.5-0.5-4.9-1.4-7.1c-0.9-2.2-2.2-4.1-3.9-5.8c-1.5-1.5-3.3-2.7-5.2-3.6v-1.8c7.4,3.1,12.2,10.3,12.2,18.4
					C136.1,42.2,127.1,51.1,116.1,51.1z"/>
			</g>
			<g>
				<linearGradient id="SVGID_7_" gradientUnits="userSpaceOnUse" x1="86.6854" y1="9.4407" x2="117.9733" y2="40.7286">
					<stop  offset="0" style="stop-color:#FF0000"/>
					<stop  offset="1" style="stop-color:#0000FF"/>
				</linearGradient>
				<path class="st7" d="M108.9,49.8c-7.7-3-12.8-10.4-12.8-18.6c0-0.1,0-0.1,0-0.2c0-0.1,0-0.3,0-0.4V0h1.6v31l0,0.1l0,0
					c0,2.5,0.5,4.9,1.4,7.1c0.9,2.2,2.2,4.1,3.9,5.8c1.7,1.7,3.6,3,5.8,3.9V49.8z"/>
			</g>
			<g>
				<linearGradient id="SVGID_8_" gradientUnits="userSpaceOnUse" x1="89.4606" y1="9.1857" x2="118.1231" y2="37.8481">
					<stop  offset="0" style="stop-color:#FF0000"/>
					<stop  offset="1" style="stop-color:#0000FF"/>
				</linearGradient>
				<path class="st8" d="M108.9,47.1c-6.2-2.8-10.3-9-10.3-15.9V0h1.6c0,7.6,0,31.2,0,31.3c0,4.2,1.7,8.1,4.6,11.1
					c1.2,1.2,2.5,2.2,4,2.9V47.1z"/>
			</g>
			<g>
				<linearGradient id="SVGID_9_" gradientUnits="userSpaceOnUse" x1="92.2379" y1="8.928" x2="118.2332" y2="34.9233">
					<stop  offset="0" style="stop-color:#FF0000"/>
					<stop  offset="1" style="stop-color:#0000FF"/>
				</linearGradient>
				<path class="st9" d="M108.9,44.2c-4.8-2.6-7.8-7.6-7.8-13.1c0-0.2,0-28.6,0-31.1h1.6c0,2.8,0,31.4,0,31.5c0.1,3.4,1.5,6.6,3.9,9
					c0.7,0.7,1.4,1.3,2.2,1.8V44.2z"/>
			</g>
			<g>
				<linearGradient id="SVGID_10_" gradientUnits="userSpaceOnUse" x1="96.2191" y1="7.4674" x2="119.4692" y2="30.7175">
					<stop  offset="0" style="stop-color:#FF0000"/>
					<stop  offset="1" style="stop-color:#0000FF"/>
				</linearGradient>
				<path class="st10" d="M108.9,41.3c-3.3-2.3-5.2-6.1-5.2-10.1c0-0.2,0-0.4,0-0.6c0.1-2.2,0.8-4.3,2-6.2c2.3-3.5,6.2-5.7,10.4-5.7
					c1.5,0,3.1,0.3,4.4,0.8l0.3,0.1v-0.9l-0.1,0c-1.4-0.5-3-0.8-4.6-0.8c-3.5,0-6.9,1.4-9.4,3.9c-0.5,0.5-0.9,1-1.3,1.6
					c-0.7,0.9-1.3,2-1.7,3.1v-3.6c0.6-0.8,1.2-1.6,2-2.4c2.8-2.7,6.5-4.3,10.4-4.3c1.5,0,3,0.2,4.4,0.7l0.2,0.1V16l-0.1,0
					c-1.4-0.4-3-0.7-4.6-0.7c-4,0-7.8,1.5-10.7,4.2c-0.2,0.2-0.3,0.3-0.5,0.5c-0.4,0.4-0.8,0.9-1.2,1.4v-2.5
					c0.6-0.6,1.3-1.2,1.9-1.7c3-2.3,6.7-3.5,10.5-3.5c1.5,0,3,0.2,4.4,0.6l0.2,0.1v-0.9l-0.1,0c-1.5-0.4-3-0.6-4.5-0.6
					c-2.5,0-4.9,0.5-7.1,1.4c-1.3,0.5-2.5,1.2-3.6,2c-0.6,0.4-1.2,0.9-1.7,1.4V0h1.6v14.3l0.3-0.2c3.1-1.9,6.8-3,10.5-3
					c1.5,0,3,0.2,4.5,0.5c0.6,0.1,1.1,0.3,1.7,0.5v10.2c-0.5-0.3-1-0.6-1.6-0.9c-1.4-0.7-3-1-4.6-1c-5.9,0-10.8,4.8-10.8,10.8
					c0,3,1.3,6,3.6,8V41.3z"/>
			</g>
		</g>
	</g>
</g>
<g>
	<path class="st5" d="M101.8,86.2c-2.3-2.3-3.4-5.4-3.4-9.2c0-3.8,1.2-6.8,3.5-9.1c2.4-2.3,5.2-3.4,8.4-3.4c3.3,0,5.9,1.4,7.9,4.1
		V55.2h5.2v34.1h-5.2v-3.7c-1.9,2.7-4.7,4-8.3,4C106.8,89.7,104.1,88.5,101.8,86.2z M103.5,77.2c0,2.3,0.8,4.3,2.3,5.7
		s3.3,2.2,5.3,2.2c2,0,3.7-0.7,5.2-2.2c1.4-1.5,2.1-3.4,2.1-5.7c0-2.3-0.7-4.3-2.1-5.8c-1.4-1.6-3.1-2.3-5.2-2.3s-3.8,0.8-5.3,2.3
		C104.2,72.9,103.5,74.9,103.5,77.2z"/>
	<path class="st5" d="M153.1,79.3h-19.2c0.1,1.8,0.9,3.2,2.4,4.3c1.5,1.1,3.2,1.6,5.2,1.6c3.1,0,5.4-1,7-2.9l2.9,3.2
		c-2.6,2.7-6.1,4.1-10.3,4.1c-3.4,0-6.4-1.1-8.8-3.4c-2.4-2.3-3.6-5.4-3.6-9.2s1.2-6.9,3.7-9.2c2.5-2.3,5.3-3.4,8.7-3.4
		c3.3,0,6.2,1,8.5,3c2.3,2,3.5,4.8,3.5,8.3V79.3z M133.9,75.3h14c0-2.1-0.6-3.6-1.9-4.7s-2.9-1.7-4.8-1.7s-3.6,0.6-5.1,1.7
		C134.7,71.8,133.9,73.3,133.9,75.3z"/>
	<path class="st5" d="M175.7,82c0,2.3-0.8,4.2-2.5,5.6c-1.7,1.4-3.8,2.1-6.5,2.1c-1.8,0-3.6-0.3-5.5-1c-1.9-0.6-3.6-1.5-5.1-2.7
		l2.5-4c2.9,2.1,5.6,3.2,8.3,3.2c1.2,0,2.1-0.3,2.8-0.8c0.7-0.5,1-1.2,1-2c0-1.2-1.6-2.3-4.9-3.3c-0.2-0.1-0.4-0.2-0.6-0.2
		c-5.1-1.4-7.6-3.7-7.6-6.9c0-2.3,0.9-4.1,2.6-5.5c1.8-1.4,4.1-2,6.9-2c2.8,0,5.5,0.8,8,2.5l-1.9,3.8c-2-1.3-4.2-2-6.5-2
		c-1.2,0-2.2,0.2-3,0.7c-0.8,0.4-1.2,1.1-1.2,2c0,0.8,0.4,1.4,1.2,1.7c0.6,0.3,1.3,0.5,2.3,0.8c1,0.2,1.9,0.5,2.6,0.7
		c0.8,0.2,1.5,0.5,2.2,0.8c0.7,0.3,1.5,0.7,2.3,1.3C174.9,78,175.7,79.7,175.7,82z"/>
	<path class="st5" d="M181.4,60c-0.6-0.6-1-1.4-1-2.3c0-0.9,0.3-1.7,1-2.3c0.6-0.6,1.4-1,2.3-1s1.7,0.3,2.3,1c0.6,0.6,1,1.4,1,2.3
		c0,0.9-0.3,1.7-1,2.3c-0.6,0.6-1.4,1-2.3,1S182.1,60.6,181.4,60z M186.3,89.3h-5.2V64.8h5.2V89.3z"/>
	<path class="st5" d="M215.9,64.8v21.3c0,4.3-1.2,7.6-3.5,9.7s-5.4,3.2-9,3.2s-7-1.2-10-3.5l2.4-3.9c2.4,1.8,4.8,2.7,7.2,2.7
		c2.4,0,4.4-0.6,5.8-1.9c1.4-1.3,2.1-3.3,2.1-6v-3.1c-0.8,1.4-1.9,2.6-3.3,3.4c-1.4,0.9-3,1.3-4.8,1.3c-3.3,0-5.9-1.1-8-3.4
		c-2.1-2.3-3.1-5.1-3.1-8.5c0-3.4,1-6.2,3.1-8.5c2.1-2.3,4.7-3.4,8-3.4s5.9,1.3,7.9,4v-3.6H215.9z M196.8,76.1c0,2,0.6,3.7,1.9,5.2
		c1.2,1.5,2.9,2.2,5,2.2s3.8-0.7,5.1-2.1c1.3-1.4,2-3.2,2-5.3c0-2.1-0.7-3.9-2-5.3c-1.3-1.5-3-2.2-5.1-2.2c-2.1,0-3.7,0.8-5,2.3
		C197.4,72.4,196.8,74.1,196.8,76.1z"/>
	<path class="st5" d="M228,76.1v13.2h-5.2V64.8h5.2v4.5c0.8-1.5,2-2.7,3.4-3.5c1.5-0.9,3-1.3,4.7-1.3c2.8,0,5,0.8,6.7,2.5
		c1.7,1.7,2.6,4.1,2.6,7.3v15h-5.2V75.9c0-4.5-1.9-6.8-5.6-6.8c-1.8,0-3.3,0.6-4.6,1.8C228.7,72.1,228,73.8,228,76.1z"/>
</g>
</svg>
